<?xml version="1.0" encoding="utf-8"?>
<!-- Generator: Adobe Illustrator 15.1.0, SVG Export Plug-In . SVG Version: 6.00 Build 0)  -->
<!DOCTYPE svg PUBLIC "-//W3C//DTD SVG 1.1//EN" "http://www.w3.org/Graphics/SVG/1.1/DTD/svg11.dtd">
<svg version="1.1" id="Ebene_1" xmlns="http://www.w3.org/2000/svg" xmlns:xlink="http://www.w3.org/1999/xlink" x="0px" y="0px"
	 width="600px" height="500px" viewBox="0 0 600 500" enable-background="new 0 0 600 500" xml:space="preserve">
<path fill-opacity="0.1786" d="M287.044,30.685L26.882,457.887c-4.992,8.16-4.992,18.24,0,26.4
	c4.896,8.064,14.112,13.152,24.096,13.152h520.323c9.888,0,19.104-5.088,24.096-13.152c4.896-8.16,4.896-18.24,0-26.4
	L335.236,30.685c-4.992-8.16-14.208-13.248-24.097-13.248C301.252,17.437,292.036,22.524,287.044,30.685z"/>
<linearGradient id="SVGID_1_" gradientUnits="userSpaceOnUse" x1="10.7285" y1="90.7866" x2="88.4656" y2="179.7094" gradientTransform="matrix(4.5568 0 0 4.315 65.5622 -201.6492)">
	<stop  offset="0" style="stop-color:#BB0000"/>
	<stop  offset="1" style="stop-color:#5F0000"/>
</linearGradient>
<path fill="url(#SVGID_1_)" d="M275.586,23.036L15.425,450.238c-4.992,8.16-4.992,18.24,0,26.4
	c4.896,8.063,14.112,13.151,24.096,13.151h520.323c9.889,0,19.104-5.088,24.097-13.151c4.896-8.16,4.896-18.24,0-26.4
	L323.778,23.036c-4.992-8.16-14.208-13.248-24.096-13.248C289.794,9.788,280.578,14.875,275.586,23.036z"/>
<linearGradient id="SVGID_2_" gradientUnits="userSpaceOnUse" x1="499.5625" y1="-46.9761" x2="143.559" y2="228.4245" gradientTransform="matrix(0.96 0 0 -0.96 19.9607 459.931)">
	<stop  offset="0" style="stop-color:#9A0000"/>
	<stop  offset="1" style="stop-color:#F22803"/>
</linearGradient>
<path fill="url(#SVGID_2_)" d="M299.683,31.771c-1.632,0-3.168,0.864-4.032,2.208L165.57,247.581L35.489,461.183
	c-0.864,1.344-0.864,3.071,0,4.416c0.864,1.344,2.4,2.208,4.032,2.208h520.323c1.632,0,3.168-0.864,4.032-2.208
	c0.864-1.345,0.864-3.072,0-4.416L303.715,33.979C302.851,32.636,301.314,31.771,299.683,31.771z"/>
<linearGradient id="SVGID_3_" gradientUnits="userSpaceOnUse" x1="182.3735" y1="421.9014" x2="576.3375" y2="163.4003">
	<stop  offset="0" style="stop-color:#EC6C60"/>
	<stop  offset="1" style="stop-color:#D11412"/>
</linearGradient>
<path fill="none" stroke="url(#SVGID_3_)" stroke-width="11.52" stroke-linejoin="round" d="M299.646,31.771
	c-1.632,0-3.168,0.864-4.032,2.208L165.534,247.581L35.453,461.183c-0.864,1.344-0.864,3.071,0,4.416
	c0.864,1.344,2.4,2.208,4.032,2.208h520.323c1.632,0,3.168-0.864,4.032-2.208c0.864-1.345,0.864-3.072,0-4.416L303.679,33.979
	C302.814,32.636,301.278,31.771,299.646,31.771z"/>
<linearGradient id="SVGID_4_" gradientUnits="userSpaceOnUse" x1="198.8428" y1="324.7754" x2="360.5386" y2="161.7699" gradientTransform="matrix(0.96 0 0 -0.96 19.9607 459.931)">
	<stop  offset="0" style="stop-color:#FFD9D9"/>
	<stop  offset="1" style="stop-color:#FF2727"/>
</linearGradient>
<path fill="url(#SVGID_4_)" d="M299.751,39.465c-1.545,0.077-2.986,0.939-3.81,2.22L165.86,255.286l-18.12,29.761
	c44.134,26.492,95.772,41.76,150.96,41.76c55.972,0,108.308-15.678,152.852-42.87L304.012,41.685
	c-0.864-1.344-2.389-2.22-4.021-2.22C299.915,39.465,299.827,39.461,299.751,39.465z"/>
<radialGradient id="SVGID_5_" cx="401.3184" cy="456.9805" r="179.5498" gradientTransform="matrix(1.142920e-08 1.5313 0.8765 2.165967e-05 -100.9108 -407.094)" gradientUnits="userSpaceOnUse">
	<stop  offset="0" style="stop-color:#FFFFFF"/>
	<stop  offset="0.5" style="stop-color:#FFFFFF"/>
	<stop  offset="1" style="stop-color:#D5D5D5"/>
</radialGradient>
<path fill="url(#SVGID_5_)" d="M286.435,145.725L129.281,403.678c-2.688,4.512-2.688,10.08,0,14.496
	c2.688,4.513,7.776,7.297,13.248,7.297h314.21c5.473,0,10.561-2.784,13.248-7.297c2.688-4.512,2.688-9.984,0-14.496L312.931,145.725
	c-2.688-4.512-7.776-7.296-13.248-7.296C294.21,138.428,289.123,141.212,286.435,145.725z"/>
<path d="M291.397,416.317c-9.004-4.312-15.861-14.681-15.861-23.983c0-17.322,18.101-30.371,35.226-25.395
	c11.554,3.357,19.405,13.783,19.31,25.638c-0.082,10.07-4.44,17.488-13.337,22.7C309.924,419.267,298.53,419.734,291.397,416.317z
	 M293.443,347.92c-1.125-0.619-3.776-2.772-5.891-4.786c-7.386-7.036-7.377-6.974-12.192-82.253
	c-4.28-66.917-4.316-67.957-2.479-72.763c4.131-10.815,13.338-15.55,28.667-14.746c9.743,0.511,17.247,3.933,22.125,10.089
	c4.167,5.258,5.072,8.23,5.068,16.631c-0.004,9.129-5.835,121.078-6.664,127.938c-1.086,8.985-6.331,16.276-14.021,19.487
	C303.664,349.353,296.414,349.552,293.443,347.92z"/>
</svg>
